<svg width="16" height="16" viewBox="0 0 16 16" fill="none" xmlns="http://www.w3.org/2000/svg">
    <path fill-rule="evenodd" clip-rule="evenodd" d="M0 8C0 3.58154 3.58154 0 8 0C12.4185 0 16 3.58154 16 8C16 12.4185 12.4185 16 8 16C3.58154 16 0 12.4185 0 8ZM8 4.92308C8.16321 4.92308 8.31974 4.98791 8.43514 5.10332C8.55055 5.21873 8.61539 5.37525 8.61539 5.53846V8.61539C8.61539 8.77859 8.55055 8.93512 8.43514 9.05053C8.31974 9.16593 8.16321 9.23077 8 9.23077C7.83679 9.23077 7.68026 9.16593 7.56486 9.05053C7.44945 8.93512 7.38462 8.77859 7.38462 8.61539V5.53846C7.38462 5.37525 7.44945 5.21873 7.56486 5.10332C7.68026 4.98791 7.83679 4.92308 8 4.92308ZM8 11.6923C8.16321 11.6923 8.31974 11.6275 8.43514 11.5121C8.55055 11.3967 8.61539 11.2401 8.61539 11.0769C8.61539 10.9137 8.55055 10.7572 8.43514 10.6418C8.31974 10.5264 8.16321 10.4615 8 10.4615C7.83679 10.4615 7.68026 10.5264 7.56486 10.6418C7.44945 10.7572 7.38462 10.9137 7.38462 11.0769C7.38462 11.2401 7.44945 11.3967 7.56486 11.5121C7.68026 11.6275 7.83679 11.6923 8 11.6923Z" fill="#EF4444"/>
</svg>
